<svg xmlns="http://www.w3.org/2000/svg" width="292" height="32" fill="none" viewBox="0 0 292 32"><path fill="#F1FAEE" d="M122.031 27.125C121.188 28.1354 119.995 28.9219 118.453 29.4844C116.911 30.0365 115.203 30.3125 113.328 30.3125C111.359 30.3125 109.63 29.8854 108.141 29.0312C106.661 28.1667 105.516 26.9167 104.703 25.2812C103.901 23.6458 103.49 21.724 103.469 19.5156V17.9688C103.469 15.6979 103.849 13.7344 104.609 12.0781C105.38 10.4115 106.484 9.14062 107.922 8.26562C109.37 7.38021 111.062 6.9375 113 6.9375C115.698 6.9375 117.807 7.58333 119.328 8.875C120.849 10.1562 121.75 12.026 122.031 14.4844H117.469C117.26 13.1823 116.797 12.2292 116.078 11.625C115.37 11.0208 114.391 10.7188 113.141 10.7188C111.547 10.7188 110.333 11.3177 109.5 12.5156C108.667 13.7135 108.245 15.4948 108.234 17.8594V19.3125C108.234 21.6979 108.688 23.5 109.594 24.7188C110.5 25.9375 111.828 26.5469 113.578 26.5469C115.339 26.5469 116.594 26.1719 117.344 25.4219V21.5H113.078V18.0469H122.031V27.125ZM135.344 30C135.135 29.5938 134.984 29.0885 134.891 28.4844C133.797 29.7031 132.375 30.3125 130.625 30.3125C128.969 30.3125 127.594 29.8333 126.5 28.875C125.417 27.9167 124.875 26.7083 124.875 25.25C124.875 23.4583 125.536 22.0833 126.859 21.125C128.193 20.1667 130.115 19.6823 132.625 19.6719H134.703V18.7031C134.703 17.9219 134.5 17.2969 134.094 16.8281C133.698 16.3594 133.068 16.125 132.203 16.125C131.443 16.125 130.844 16.3073 130.406 16.6719C129.979 17.0365 129.766 17.5365 129.766 18.1719H125.25C125.25 17.1927 125.552 16.2865 126.156 15.4531C126.76 14.6198 127.615 13.9688 128.719 13.5C129.823 13.0208 131.062 12.7812 132.438 12.7812C134.521 12.7812 136.172 13.3073 137.391 14.3594C138.62 15.401 139.234 16.8698 139.234 18.7656V26.0938C139.245 27.6979 139.469 28.9115 139.906 29.7344V30H135.344ZM131.609 26.8594C132.276 26.8594 132.891 26.7135 133.453 26.4219C134.016 26.1198 134.432 25.7188 134.703 25.2188V22.3125H133.016C130.755 22.3125 129.552 23.0938 129.406 24.6562L129.391 24.9219C129.391 25.4844 129.589 25.9479 129.984 26.3125C130.38 26.6771 130.922 26.8594 131.609 26.8594ZM146.938 13.0938L147.078 14.9844C148.276 13.5156 149.896 12.7812 151.938 12.7812C154.115 12.7812 155.609 13.6406 156.422 15.3594C157.609 13.6406 159.302 12.7812 161.5 12.7812C163.333 12.7812 164.698 13.3177 165.594 14.3906C166.49 15.4531 166.938 17.0573 166.938 19.2031V30H162.406V19.2188C162.406 18.2604 162.219 17.5625 161.844 17.125C161.469 16.6771 160.807 16.4531 159.859 16.4531C158.505 16.4531 157.568 17.099 157.047 18.3906L157.062 30H152.547V19.2344C152.547 18.2552 152.354 17.5469 151.969 17.1094C151.583 16.6719 150.927 16.4531 150 16.4531C148.719 16.4531 147.792 16.9844 147.219 18.0469V30H142.703V13.0938H146.938ZM178.203 30.3125C175.724 30.3125 173.703 29.5521 172.141 28.0312C170.589 26.5104 169.812 24.4844 169.812 21.9531V21.5156C169.812 19.8177 170.141 18.3021 170.797 16.9688C171.453 15.625 172.38 14.5938 173.578 13.875C174.786 13.1458 176.161 12.7812 177.703 12.7812C180.016 12.7812 181.833 13.5104 183.156 14.9688C184.49 16.4271 185.156 18.4948 185.156 21.1719V23.0156H174.391C174.536 24.1198 174.974 25.0052 175.703 25.6719C176.443 26.3385 177.375 26.6719 178.5 26.6719C180.24 26.6719 181.599 26.0417 182.578 24.7812L184.797 27.2656C184.12 28.224 183.203 28.974 182.047 29.5156C180.891 30.0469 179.609 30.3125 178.203 30.3125ZM177.688 16.4375C176.792 16.4375 176.062 16.7396 175.5 17.3438C174.948 17.9479 174.594 18.8125 174.438 19.9375H180.719V19.5781C180.698 18.5781 180.427 17.8073 179.906 17.2656C179.385 16.7135 178.646 16.4375 177.688 16.4375ZM195 21.3906C195 19.7135 195.323 18.2188 195.969 16.9062C196.615 15.5938 197.542 14.5781 198.75 13.8594C199.969 13.1406 201.38 12.7812 202.984 12.7812C205.266 12.7812 207.125 13.4792 208.562 14.875C210.01 16.2708 210.818 18.1667 210.984 20.5625L211.016 21.7188C211.016 24.3125 210.292 26.3958 208.844 27.9688C207.396 29.5312 205.453 30.3125 203.016 30.3125C200.578 30.3125 198.63 29.5312 197.172 27.9688C195.724 26.4062 195 24.2812 195 21.5938V21.3906ZM199.516 21.7188C199.516 23.3229 199.818 24.5521 200.422 25.4062C201.026 26.25 201.891 26.6719 203.016 26.6719C204.109 26.6719 204.964 26.2552 205.578 25.4219C206.193 24.5781 206.5 23.2344 206.5 21.3906C206.5 19.8177 206.193 18.599 205.578 17.7344C204.964 16.8698 204.099 16.4375 202.984 16.4375C201.88 16.4375 201.026 16.8698 200.422 17.7344C199.818 18.5885 199.516 19.9167 199.516 21.7188ZM215.031 30V16.4062H212.516V13.0938H215.031V11.6562C215.031 9.76042 215.573 8.29167 216.656 7.25C217.75 6.19792 219.276 5.67188 221.234 5.67188C221.859 5.67188 222.625 5.77604 223.531 5.98438L223.484 9.48438C223.109 9.39062 222.651 9.34375 222.109 9.34375C220.411 9.34375 219.562 10.1406 219.562 11.7344V13.0938H222.922V16.4062H219.562V30H215.031ZM251.531 27.125C250.688 28.1354 249.495 28.9219 247.953 29.4844C246.411 30.0365 244.703 30.3125 242.828 30.3125C240.859 30.3125 239.13 29.8854 237.641 29.0312C236.161 28.1667 235.016 26.9167 234.203 25.2812C233.401 23.6458 232.99 21.724 232.969 19.5156V17.9688C232.969 15.6979 233.349 13.7344 234.109 12.0781C234.88 10.4115 235.984 9.14062 237.422 8.26562C238.87 7.38021 240.562 6.9375 242.5 6.9375C245.198 6.9375 247.307 7.58333 248.828 8.875C250.349 10.1562 251.25 12.026 251.531 14.4844H246.969C246.76 13.1823 246.297 12.2292 245.578 11.625C244.87 11.0208 243.891 10.7188 242.641 10.7188C241.047 10.7188 239.833 11.3177 239 12.5156C238.167 13.7135 237.745 15.4948 237.734 17.8594V19.3125C237.734 21.6979 238.188 23.5 239.094 24.7188C240 25.9375 241.328 26.5469 243.078 26.5469C244.839 26.5469 246.094 26.1719 246.844 25.4219V21.5H242.578V18.0469H251.531V27.125ZM254.344 21.3906C254.344 19.7135 254.667 18.2188 255.312 16.9062C255.958 15.5938 256.885 14.5781 258.094 13.8594C259.312 13.1406 260.724 12.7812 262.328 12.7812C264.609 12.7812 266.469 13.4792 267.906 14.875C269.354 16.2708 270.161 18.1667 270.328 20.5625L270.359 21.7188C270.359 24.3125 269.635 26.3958 268.188 27.9688C266.74 29.5312 264.797 30.3125 262.359 30.3125C259.922 30.3125 257.974 29.5312 256.516 27.9688C255.068 26.4062 254.344 24.2812 254.344 21.5938V21.3906ZM258.859 21.7188C258.859 23.3229 259.161 24.5521 259.766 25.4062C260.37 26.25 261.234 26.6719 262.359 26.6719C263.453 26.6719 264.307 26.2552 264.922 25.4219C265.536 24.5781 265.844 23.2344 265.844 21.3906C265.844 19.8177 265.536 18.599 264.922 17.7344C264.307 16.8698 263.443 16.4375 262.328 16.4375C261.224 16.4375 260.37 16.8698 259.766 17.7344C259.161 18.5885 258.859 19.9167 258.859 21.7188ZM279.219 24.4844L282.359 13.0938H287.078L281.375 30H277.062L271.359 13.0938H276.078L279.219 24.4844Z"/><rect width="77" height="28" y="4" fill="#E63946"/><rect width="25" height="28" x="26" y="4" fill="#F1FAEE"/></svg>