<svg xmlns="http://www.w3.org/2000/svg" width="342" height="103" fill="none" viewBox="0 0 342 103"><path fill="#F1FAEE" d="M66.8526 95.9986C65.6429 97.4473 63.9329 98.5749 61.7225 99.3813C59.5122 100.173 57.0629 100.569 54.3746 100.569C51.552 100.569 49.0728 99.9563 46.9371 98.7317C44.8164 97.4921 43.1736 95.6999 42.0087 93.3552C40.8587 91.0104 40.2688 88.255 40.2389 85.0888V82.871C40.2389 79.6152 40.784 76.8 41.8743 74.4254C42.9794 72.0358 44.5625 70.2138 46.6235 68.9593C48.6994 67.6898 51.1263 67.0551 53.9042 67.0551C57.7723 67.0551 60.7966 67.981 62.9771 69.833C65.1575 71.6699 66.4494 74.3507 66.8526 77.8753H60.3112C60.0125 76.0085 59.3479 74.6419 58.3174 73.7757C57.3019 72.9095 55.898 72.4764 54.1058 72.4764C51.8208 72.4764 50.0809 73.3352 48.8861 75.0526C47.6914 76.7701 47.0865 79.324 47.0716 82.7142V84.7976C47.0716 88.2176 47.7212 90.8013 49.0205 92.5487C50.3199 94.2961 52.224 95.1697 54.7331 95.1697C57.2571 95.1697 59.0567 94.6321 60.132 93.5568V87.9339H54.0162V82.983H66.8526V95.9986ZM85.9392 100.121C85.6405 99.5382 85.424 98.8138 85.2896 97.9476C83.7214 99.695 81.6828 100.569 79.1738 100.569C76.7992 100.569 74.8278 99.8816 73.2596 98.5077C71.7064 97.1337 70.9298 95.4012 70.9298 93.3104C70.9298 90.7416 71.8782 88.7702 73.7749 87.3962C75.6865 86.0222 78.442 85.3277 82.0413 85.3128H85.0207V83.9239C85.0207 82.8038 84.7295 81.9077 84.1471 81.2356C83.5795 80.5636 82.676 80.2275 81.4364 80.2275C80.3462 80.2275 79.4874 80.4889 78.8602 81.0116C78.2478 81.5343 77.9417 82.2512 77.9417 83.1622H71.4675C71.4675 81.7583 71.9006 80.459 72.7668 79.2642C73.633 78.0695 74.8576 77.136 76.4407 76.464C78.0238 75.777 79.801 75.4335 81.7724 75.4335C84.7594 75.4335 87.1265 76.1877 88.8739 77.6961C90.6362 79.1896 91.5173 81.2954 91.5173 84.0135V94.5201C91.5323 96.82 91.8534 98.5599 92.4806 99.7398V100.121H85.9392ZM80.5851 95.6178C81.5409 95.6178 82.4221 95.4087 83.2286 94.9905C84.035 94.5574 84.6324 93.9824 85.0207 93.2656V89.0988H82.6013C79.3605 89.0988 77.6355 90.2189 77.4264 92.4591L77.404 92.8399C77.404 93.6464 77.6878 94.311 78.2553 94.8337C78.8228 95.3564 79.5994 95.6178 80.5851 95.6178ZM102.562 75.8815L102.763 78.5922C104.481 76.4864 106.803 75.4335 109.73 75.4335C112.852 75.4335 114.995 76.6656 116.16 79.1298C117.862 76.6656 120.289 75.4335 123.44 75.4335C126.069 75.4335 128.025 76.2026 129.31 77.7409C130.594 79.2642 131.236 81.5642 131.236 84.6407V100.121H124.74V84.6632C124.74 83.2892 124.471 82.2885 123.933 81.6613C123.396 81.0191 122.447 80.698 121.088 80.698C119.147 80.698 117.802 81.6239 117.056 83.4758L117.078 100.121H110.604V84.6856C110.604 83.2817 110.328 82.2661 109.775 81.6389C109.222 81.0116 108.282 80.698 106.952 80.698C105.115 80.698 103.786 81.4596 102.965 82.983V100.121H96.4906V75.8815H102.562ZM147.388 100.569C143.834 100.569 140.936 99.4784 138.696 97.2979C136.471 95.1175 135.358 92.2127 135.358 88.5835V87.9563C135.358 85.5219 135.829 83.3489 136.77 81.4372C137.71 79.5107 139.04 78.0321 140.757 77.0016C142.49 75.9562 144.461 75.4335 146.671 75.4335C149.987 75.4335 152.593 76.4789 154.49 78.5698C156.401 80.6606 157.357 83.6252 157.357 87.4634V90.1069H141.922C142.131 91.6899 142.758 92.9594 143.804 93.9152C144.864 94.871 146.201 95.349 147.814 95.349C150.308 95.349 152.257 94.4454 153.661 92.6383L156.842 96.2002C155.871 97.5742 154.557 98.6495 152.899 99.4261C151.241 100.188 149.404 100.569 147.388 100.569ZM146.649 80.6756C145.365 80.6756 144.319 81.1087 143.513 81.9749C142.721 82.8411 142.213 84.0807 141.989 85.6936H150.995V85.1784C150.965 83.7447 150.577 82.6395 149.83 81.8629C149.083 81.0713 148.023 80.6756 146.649 80.6756ZM171.47 87.777C171.47 85.3726 171.933 83.2294 172.859 81.3476C173.785 79.4659 175.115 78.0097 176.847 76.9792C178.594 75.9487 180.618 75.4335 182.918 75.4335C186.189 75.4335 188.855 76.4341 190.915 78.4354C192.991 80.4366 194.149 83.1547 194.388 86.5897L194.433 88.2475C194.433 91.9662 193.395 94.9532 191.319 97.2083C189.243 99.4485 186.457 100.569 182.963 100.569C179.468 100.569 176.675 99.4485 174.584 97.2083C172.508 94.9681 171.47 91.9214 171.47 88.0683V87.777ZM177.945 88.2475C177.945 90.5474 178.378 92.3097 179.244 93.5344C180.11 94.7441 181.35 95.349 182.963 95.349C184.531 95.349 185.756 94.7516 186.637 93.5568C187.518 92.3471 187.958 90.4205 187.958 87.777C187.958 85.5219 187.518 83.7745 186.637 82.535C185.756 81.2954 184.516 80.6756 182.918 80.6756C181.335 80.6756 180.11 81.2954 179.244 82.535C178.378 83.7596 177.945 85.6638 177.945 88.2475ZM200.19 100.121V80.6308H196.583V75.8815H200.19V73.8205C200.19 71.1024 200.967 68.9966 202.52 67.5031C204.088 65.9947 206.276 65.2405 209.084 65.2405C209.98 65.2405 211.077 65.3899 212.377 65.6886L212.31 70.7066C211.772 70.5722 211.115 70.505 210.338 70.505C207.904 70.505 206.687 71.6475 206.687 73.9325V75.8815H211.503V80.6308H206.687V100.121H200.19ZM252.521 95.9986C251.312 97.4473 249.602 98.5749 247.391 99.3813C245.181 100.173 242.732 100.569 240.043 100.569C237.221 100.569 234.741 99.9563 232.606 98.7317C230.485 97.4921 228.842 95.6999 227.677 93.3552C226.527 91.0104 225.937 88.255 225.908 85.0888V82.871C225.908 79.6152 226.453 76.8 227.543 74.4254C228.648 72.0358 230.231 70.2138 232.292 68.9593C234.368 67.6898 236.795 67.0551 239.573 67.0551C243.441 67.0551 246.465 67.981 248.646 69.833C250.826 71.6699 252.118 74.3507 252.521 77.8753H245.98C245.681 76.0085 245.017 74.6419 243.986 73.7757C242.971 72.9095 241.567 72.4764 239.774 72.4764C237.489 72.4764 235.75 73.3352 234.555 75.0526C233.36 76.7701 232.755 79.324 232.74 82.7142V84.7976C232.74 88.2176 233.39 90.8013 234.689 92.5487C235.989 94.2961 237.893 95.1697 240.402 95.1697C242.926 95.1697 244.725 94.6321 245.801 93.5568V87.9339H239.685V82.983H252.521V95.9986ZM256.554 87.777C256.554 85.3726 257.017 83.2294 257.943 81.3476C258.869 79.4659 260.198 78.0097 261.93 76.9792C263.678 75.9487 265.701 75.4335 268.001 75.4335C271.272 75.4335 273.938 76.4341 275.999 78.4354C278.075 80.4366 279.232 83.1547 279.471 86.5897L279.516 88.2475C279.516 91.9662 278.478 94.9532 276.402 97.2083C274.326 99.4485 271.541 100.569 268.046 100.569C264.551 100.569 261.758 99.4485 259.668 97.2083C257.592 94.9681 256.554 91.9214 256.554 88.0683V87.777ZM263.028 88.2475C263.028 90.5474 263.461 92.3097 264.327 93.5344C265.193 94.7441 266.433 95.349 268.046 95.349C269.614 95.349 270.839 94.7516 271.72 93.5568C272.601 92.3471 273.042 90.4205 273.042 87.777C273.042 85.5219 272.601 83.7745 271.72 82.535C270.839 81.2954 269.599 80.6756 268.001 80.6756C266.418 80.6756 265.193 81.2954 264.327 82.535C263.461 83.7596 263.028 85.6638 263.028 88.2475ZM292.218 92.2127L296.721 75.8815H303.486L295.309 100.121H289.126L280.95 75.8815H287.715L292.218 92.2127Z"/><rect width="110.398" height="40.145" x="115.084" fill="#E63946"/><rect width="35.843" height="40.145" x="152.361" fill="#F1FAEE"/></svg>